<svg id="Layer_1" data-name="Layer 1" xmlns="http://www.w3.org/2000/svg" viewBox="0 0 2424.16 673.92"><defs><style>.cls-1,.cls-2{fill:#ff6c0b;}.cls-2,.cls-3{opacity:0.65;}.cls-4{fill:#fff;}</style></defs><path class="cls-1" d="M897.78,319.49H848.22v-29.2H983.17v29.2H933.62V445.16H897.78Z" transform="translate(-19.65 -30.76)"/><path class="cls-1" d="M1149.77,412h-71.9l-13.72,33.19h-36.72l69-154.87h35.4l69.25,154.87h-37.61Zm-11.28-27.21-24.56-59.3-24.56,59.3Z" transform="translate(-19.65 -30.76)"/><path class="cls-1" d="M1326.77,384.32,1306,406v39.16h-35.62V290.29H1306v72.35l68.58-72.35h39.83l-64.17,69,67.93,85.85h-41.81Z" transform="translate(-19.65 -30.76)"/><path class="cls-1" d="M1607.07,416.4v28.76H1487.16V290.29h117v28.76h-81.43v33.63h71.91v27.88h-71.91V416.4Z" transform="translate(-19.65 -30.76)"/><path class="cls-2" d="M1719.2,436.64a76.12,76.12,0,0,1-29.54-28.43,81.74,81.74,0,0,1,0-81,76.12,76.12,0,0,1,29.54-28.43q18.79-10.31,42.26-10.29,23.22,0,42,10.29a75.52,75.52,0,0,1,29.42,28.31q10.62,18,10.62,40.6t-10.62,40.6a75.48,75.48,0,0,1-29.42,28.32q-18.81,10.28-42,10.29Q1738,446.93,1719.2,436.64Zm72.89-17.15a56.62,56.62,0,0,0,21.46-21.35,62.78,62.78,0,0,0,0-60.83A56.72,56.72,0,0,0,1792.09,316a60.81,60.81,0,0,0-30.63-7.74,62.12,62.12,0,0,0-30.87,7.74,56.32,56.32,0,0,0-21.68,21.36,62.85,62.85,0,0,0,0,60.83,56.23,56.23,0,0,0,21.68,21.35,62,62,0,0,0,30.87,7.75A60.72,60.72,0,0,0,1792.09,419.49Z" transform="translate(-19.65 -30.76)"/><path class="cls-2" d="M1948.44,428.34q-17.25-17.7-17.25-50.89V289.4h22.12v87.17q0,49.79,43.58,49.78,21.24,0,32.53-12.28t11.28-37.5V289.4h21.46v88.05q0,33.42-17.26,51T1996.67,446Q1965.7,446,1948.44,428.34Z" transform="translate(-19.65 -30.76)"/><path class="cls-2" d="M2188.49,309.54h-53.1V290.29h128.1v19.25h-53.1V445.16h-21.9Z" transform="translate(-19.65 -30.76)"/><path class="cls-2" d="M2350.11,441.51q-16.26-5.42-25.56-14.05l8.2-17.26q8.84,8,22.67,12.94a83,83,0,0,0,28.43,5q19.26,0,28.76-6.52t9.51-17.37a17.09,17.09,0,0,0-5.19-12.94,34.82,34.82,0,0,0-12.84-7.64q-7.62-2.64-21.57-6a222,222,0,0,1-28.2-8.41A46.66,46.66,0,0,1,2336,356.33q-7.63-8.74-7.63-23.57a39.87,39.87,0,0,1,6.53-22.34q6.53-10,19.79-15.93t33-6a104.4,104.4,0,0,1,27,3.54,71.73,71.73,0,0,1,22.78,10.18l-7.3,17.69a80.41,80.41,0,0,0-20.8-9.4,77.54,77.54,0,0,0-21.68-3.21q-18.8,0-28.2,6.86t-9.41,17.7a16.93,16.93,0,0,0,5.31,12.94,36.81,36.81,0,0,0,13.16,7.75,206.27,206.27,0,0,0,21.35,5.86,216.37,216.37,0,0,1,28.1,8.41,47.33,47.33,0,0,1,18.26,12.83q7.64,8.64,7.62,23.23a39.62,39.62,0,0,1-6.63,22.24q-6.63,10.07-20.13,15.92t-33.19,5.87A105.82,105.82,0,0,1,2350.11,441.51Z" transform="translate(-19.65 -30.76)"/><g class="cls-3"><rect class="cls-1" x="84.27" y="20.77" width="653.15" height="653.15" rx="97.4"/></g><rect class="cls-1" x="21.96" width="653.15" height="653.15" rx="97.4"/><rect class="cls-4" x="74.98" y="452.56" width="571.49" height="28.03"/><path class="cls-4" d="M125.68,426.85v0h64.59a15.24,15.24,0,0,1,15.33,15.21V445a15.23,15.23,0,0,1-15.33,15.2h447c-116.16-.12-178.68-75.29-178.68-75.29C367.12,423,317.5,194.57,422.35,244.44s60.57,123.34,60.57,123.34c73.11,40.38,119.82,46,149,40.26-24.08-116.77-127.6-204.72-251.55-204.72a256,256,0,0,0-195.23,90h21.41a16.6,16.6,0,0,1,11.8,28.46,16.12,16.12,0,0,1-11.8,4.86H104.29A15.3,15.3,0,0,0,89,341.94v2.89a15.3,15.3,0,0,0,15.26,15.26h39.52a0,0,0,0,1,0,0h61.42a16.61,16.61,0,0,1,16.67,16.67,17.1,17.1,0,0,1-4.86,11.8,16.89,16.89,0,0,1-11.81,5H173.88c-.21,0-.4-.06-.61-.06H97.37a15.25,15.25,0,0,0-15.26,15.27v2.82a15.29,15.29,0,0,0,15.26,15.26Z" transform="translate(-19.65 -30.76)"/><rect class="cls-4" x="38.35" y="247.58" width="89.72" height="33.39" rx="14.01"/><rect class="cls-4" y="329.36" width="62.46" height="33.39" rx="16.69"/><circle class="cls-4" cx="356.05" cy="161.36" r="25.09"/></svg>